<svg xmlns="http://www.w3.org/2000/svg" xmlns:xlink="http://www.w3.org/1999/xlink" width="240" zoomAndPan="magnify" viewBox="0 0 180 37.5" height="50" preserveAspectRatio="xMidYMid meet" version="1.0"><defs><g/><clipPath id="id1"><path d="M 10 7.957031 L 170 7.957031 L 170 29.417969 L 10 29.417969 Z M 10 7.957031 " clip-rule="nonzero"/></clipPath></defs><g fill="#000000" fill-opacity="1"><g transform="translate(19.892102, 22.041979)"><g><path d="M 7.132812 -6.792969 L 1.699219 -6.792969 C 0.953125 -6.792969 0.339844 -6.183594 0.339844 -5.433594 L 0.339844 -1.359375 C 0.339844 -0.613281 0.953125 0 1.699219 0 L 7.132812 0 L 7.132812 -1.359375 L 1.699219 -1.359375 L 1.699219 -2.71875 L 7.132812 -2.71875 L 7.132812 -4.078125 L 1.699219 -4.078125 L 1.699219 -5.433594 L 7.132812 -5.433594 Z M 7.132812 -6.792969 "/></g></g></g><g fill="#000000" fill-opacity="1"><g transform="translate(27.365865, 22.041979)"><g><path d="M 3.738281 0 C 4.035156 0 4.339844 -0.109375 4.585938 -0.324219 L 6.878906 -2.292969 C 7.039062 -2.4375 7.125 -2.617188 7.125 -2.835938 L 7.132812 -6.792969 L 5.773438 -6.792969 L 5.773438 -3.140625 L 3.738281 -1.382812 L 1.699219 -3.140625 L 1.699219 -6.792969 L 0.339844 -6.792969 L 0.339844 -2.835938 C 0.339844 -2.625 0.433594 -2.4375 0.59375 -2.292969 L 2.886719 -0.324219 C 3.140625 -0.109375 3.441406 0 3.738281 0 Z M 3.738281 0 "/></g></g></g><g fill="#000000" fill-opacity="1"><g transform="translate(34.839628, 22.041979)"><g><path d="M 5.773438 0 C 6.53125 0 7.132812 -0.621094 7.132812 -1.359375 L 7.132812 -5.433594 C 7.132812 -6.183594 6.523438 -6.792969 5.773438 -6.792969 L 1.699219 -6.792969 C 0.953125 -6.792969 0.339844 -6.183594 0.339844 -5.433594 L 0.339844 -1.359375 C 0.339844 -0.613281 0.953125 0 1.699219 0 Z M 1.699219 -5.433594 L 5.773438 -5.433594 L 5.773438 -1.359375 L 1.699219 -1.359375 Z M 1.699219 -5.433594 "/></g></g></g><g fill="#000000" fill-opacity="1"><g transform="translate(42.313391, 22.041979)"><g><path d="M 7.132812 0 L 7.132812 -1.359375 L 1.699219 -1.359375 L 1.699219 -6.792969 L 0.339844 -6.792969 L 0.339844 -1.359375 C 0.339844 -0.613281 0.953125 0 1.699219 0 Z M 7.132812 0 "/></g></g></g><g fill="#000000" fill-opacity="1"><g transform="translate(49.787154, 22.041979)"><g><path d="M 5.773438 0 C 6.523438 0 7.132812 -0.613281 7.132812 -1.359375 L 7.132812 -6.792969 L 5.773438 -6.792969 L 5.773438 -1.359375 L 1.699219 -1.359375 L 1.699219 -6.792969 L 0.339844 -6.792969 L 0.339844 -1.359375 C 0.339844 -0.613281 0.953125 0 1.699219 0 Z M 5.773438 0 "/></g></g></g><g fill="#000000" fill-opacity="1"><g transform="translate(57.260917, 22.041979)"><g><path d="M 7.132812 -6.792969 L 0.339844 -6.792969 L 0.339844 -5.433594 L 3.058594 -5.433594 L 3.058594 0 L 4.417969 0 L 4.417969 -5.433594 L 7.132812 -5.433594 Z M 7.132812 -6.792969 "/></g></g></g><g fill="#000000" fill-opacity="1"><g transform="translate(64.73468, 22.041979)"><g><path d="M 7.132812 0 L 7.132812 -1.359375 L 4.417969 -1.359375 L 4.417969 -5.433594 L 7.132812 -5.433594 L 7.132812 -6.792969 L 0.339844 -6.792969 L 0.339844 -5.433594 L 3.058594 -5.433594 L 3.058594 -1.359375 L 0.339844 -1.359375 L 0.339844 0 Z M 7.132812 0 "/></g></g></g><g fill="#000000" fill-opacity="1"><g transform="translate(72.208443, 22.041979)"><g><path d="M 5.773438 0 C 6.53125 0 7.132812 -0.621094 7.132812 -1.359375 L 7.132812 -5.433594 C 7.132812 -6.183594 6.523438 -6.792969 5.773438 -6.792969 L 1.699219 -6.792969 C 0.953125 -6.792969 0.339844 -6.183594 0.339844 -5.433594 L 0.339844 -1.359375 C 0.339844 -0.613281 0.953125 0 1.699219 0 Z M 1.699219 -5.433594 L 5.773438 -5.433594 L 5.773438 -1.359375 L 1.699219 -1.359375 Z M 1.699219 -5.433594 "/></g></g></g><g fill="#000000" fill-opacity="1"><g transform="translate(79.682206, 22.041979)"><g><path d="M 1.699219 0 L 1.699219 -4.476562 L 5.96875 -0.203125 C 6.097656 -0.078125 6.269531 0 6.453125 0 C 6.828125 0 7.132812 -0.304688 7.132812 -0.679688 L 7.132812 -6.792969 L 5.773438 -6.792969 L 5.773438 -2.320312 L 1.503906 -6.589844 C 1.375 -6.71875 1.207031 -6.792969 1.019531 -6.792969 C 0.644531 -6.792969 0.339844 -6.488281 0.339844 -6.113281 L 0.339844 0 Z M 1.699219 0 "/></g></g></g><g fill="#000000" fill-opacity="1"><g transform="translate(87.155969, 22.041979)"><g/></g></g><g fill="#000000" fill-opacity="1"><g transform="translate(90.892856, 22.041979)"><g><path d="M 7.132812 -6.792969 L 1.699219 -6.792969 C 0.953125 -6.792969 0.339844 -6.183594 0.339844 -5.433594 L 0.339844 -1.359375 C 0.339844 -0.613281 0.953125 0 1.699219 0 L 5.773438 0 C 6.53125 0 7.132812 -0.621094 7.132812 -1.359375 L 7.132812 -4.078125 L 3.058594 -4.078125 L 3.058594 -2.71875 L 5.773438 -2.71875 L 5.773438 -1.359375 L 1.699219 -1.359375 L 1.699219 -5.433594 L 7.132812 -5.433594 Z M 7.132812 -6.792969 "/></g></g></g><g fill="#000000" fill-opacity="1"><g transform="translate(98.366619, 22.041979)"><g><path d="M 7.132812 -5.433594 C 7.132812 -6.183594 6.523438 -6.792969 5.773438 -6.792969 L 0.339844 -6.792969 L 0.339844 0 L 1.699219 0 L 1.699219 -2.71875 L 2.496094 -2.71875 L 5.011719 -0.203125 C 5.148438 -0.0664062 5.316406 0 5.503906 0 L 7.132812 0 L 7.132812 -1.359375 L 5.773438 -1.359375 L 4.417969 -2.71875 L 5.773438 -2.71875 C 6.523438 -2.71875 7.132812 -3.328125 7.132812 -4.078125 Z M 5.773438 -5.433594 L 5.773438 -4.078125 L 1.699219 -4.078125 L 1.699219 -5.433594 Z M 5.773438 -5.433594 "/></g></g></g><g fill="#000000" fill-opacity="1"><g transform="translate(105.840382, 22.041979)"><g><path d="M 5.773438 0 C 6.53125 0 7.132812 -0.621094 7.132812 -1.359375 L 7.132812 -5.433594 C 7.132812 -6.183594 6.523438 -6.792969 5.773438 -6.792969 L 1.699219 -6.792969 C 0.953125 -6.792969 0.339844 -6.183594 0.339844 -5.433594 L 0.339844 -1.359375 C 0.339844 -0.613281 0.953125 0 1.699219 0 Z M 1.699219 -5.433594 L 5.773438 -5.433594 L 5.773438 -1.359375 L 1.699219 -1.359375 Z M 1.699219 -5.433594 "/></g></g></g><g fill="#000000" fill-opacity="1"><g transform="translate(113.314145, 22.041979)"><g><path d="M 5.773438 0 C 6.523438 0 7.132812 -0.613281 7.132812 -1.359375 L 7.132812 -6.792969 L 5.773438 -6.792969 L 5.773438 -1.359375 L 1.699219 -1.359375 L 1.699219 -6.792969 L 0.339844 -6.792969 L 0.339844 -1.359375 C 0.339844 -0.613281 0.953125 0 1.699219 0 Z M 5.773438 0 "/></g></g></g><g fill="#000000" fill-opacity="1"><g transform="translate(120.787907, 22.041979)"><g><path d="M 5.773438 -6.792969 L 0.339844 -6.792969 L 0.339844 0 L 1.699219 0 L 1.699219 -2.71875 L 5.773438 -2.71875 C 6.523438 -2.71875 7.132812 -3.328125 7.132812 -4.078125 L 7.132812 -5.433594 C 7.132812 -6.183594 6.523438 -6.792969 5.773438 -6.792969 Z M 1.699219 -4.078125 L 1.699219 -5.433594 L 5.773438 -5.433594 L 5.773438 -4.078125 Z M 1.699219 -4.078125 "/></g></g></g><g fill="#000000" fill-opacity="1"><g transform="translate(128.26167, 22.041979)"><g/></g></g><g fill="#ff1616" fill-opacity="1"><g transform="translate(131.991131, 22.041979)"><g><path d="M 7.132812 -6.792969 L 0.339844 -6.792969 L 0.339844 -5.433594 L 3.058594 -5.433594 L 3.058594 0 L 4.417969 0 L 4.417969 -5.433594 L 7.132812 -5.433594 Z M 7.132812 -6.792969 "/></g></g></g><g fill="#ff1616" fill-opacity="1"><g transform="translate(139.464894, 22.041979)"><g><path d="M 7.132812 -6.792969 L 1.699219 -6.792969 C 0.953125 -6.792969 0.339844 -6.183594 0.339844 -5.433594 L 0.339844 -1.359375 C 0.339844 -0.613281 0.953125 0 1.699219 0 L 7.132812 0 L 7.132812 -1.359375 L 1.699219 -1.359375 L 1.699219 -2.71875 L 7.132812 -2.71875 L 7.132812 -4.078125 L 1.699219 -4.078125 L 1.699219 -5.433594 L 7.132812 -5.433594 Z M 7.132812 -6.792969 "/></g></g></g><g fill="#ff1616" fill-opacity="1"><g transform="translate(146.938657, 22.041979)"><g><path d="M 7.132812 0 L 7.132812 -1.359375 L 1.699219 -1.359375 L 1.699219 -5.433594 L 7.132812 -5.433594 L 7.132812 -6.792969 L 1.699219 -6.792969 C 0.953125 -6.792969 0.339844 -6.183594 0.339844 -5.433594 L 0.339844 -1.359375 C 0.339844 -0.613281 0.953125 0 1.699219 0 Z M 7.132812 0 "/></g></g></g><g fill="#ff1616" fill-opacity="1"><g transform="translate(154.41242, 22.041979)"><g><path d="M 5.773438 -4.078125 L 1.699219 -4.078125 L 1.699219 -6.792969 L 0.339844 -6.792969 L 0.339844 0 L 1.699219 0 L 1.699219 -2.71875 L 5.773438 -2.71875 L 5.773438 0 L 7.132812 0 L 7.132812 -6.792969 L 5.773438 -6.792969 Z M 5.773438 -4.078125 "/></g></g></g><g clip-path="url(#id1)"><path fill="#545454" d="M 169.691406 29.417969 L 10.1875 29.417969 L 10.1875 7.957031 L 169.691406 7.957031 Z M 12.390625 27.175781 L 167.488281 27.175781 L 167.488281 10.199219 L 12.390625 10.199219 Z M 12.390625 27.175781 " fill-opacity="1" fill-rule="nonzero"/></g></svg>